<?xml version="1.0" encoding="UTF-8" standalone="no"?>
<svg width="62px" height="58px" viewBox="0 0 62 58" version="1.1" xmlns="http://www.w3.org/2000/svg" xmlns:xlink="http://www.w3.org/1999/xlink">
    <!-- Generator: Sketch 39.1 (31720) - http://www.bohemiancoding.com/sketch -->
    <title>Group</title>
    <desc>Created with Sketch.</desc>
    <defs></defs>
    <g id="Page-1" stroke="none" stroke-width="1" fill-rule="evenodd">
        <g id="Group">
            <g transform="translate(7.000000, 17.000000)">
                <polygon id="Shape" points="3.627 6.566 8.827 1.399 8.859 1.367 8.245 0.751 3.665 5.302 1.127 2.457 1.097 2.423 0.448 3.003 3.595 6.531"></polygon>
                <polygon id="Shape" points="3.665 15.546 1.127 12.7 1.097 12.666 0.448 13.246 3.595 16.774 3.627 16.809 8.827 11.643 8.859 11.61 8.245 10.994"></polygon>
                <path d="M4.653,20.176 C2.44,20.176 0.639,21.977 0.639,24.19 C0.639,26.404 2.44,28.204 4.653,28.204 C6.867,28.204 8.667,26.403 8.667,24.19 C8.667,21.976 6.867,20.176 4.653,20.176 L4.653,20.176 Z M7.798,24.19 C7.798,25.924 6.387,27.335 4.653,27.335 C2.919,27.335 1.509,25.924 1.509,24.19 C1.509,22.456 2.92,21.045 4.653,21.045 C6.387,21.045 7.798,22.456 7.798,24.19 L7.798,24.19 Z" id="Shape"></path>
                <rect id="Rectangle-path" x="12.25" y="3.183" width="19.465" height="0.96"></rect>
                <rect id="Rectangle-path" x="12.295" y="13.471" width="19.375" height="0.87"></rect>
                <rect id="Rectangle-path" x="12.295" y="23.756" width="19.375" height="0.87"></rect>
            </g>
            <path d="M57.953,9.879 C56.372,9.853 54.79,9.837 53.211,9.839 C52.433,9.841 51.702,10.083 51.098,10.552 C50.193,11.255 49.664,12.406 49.652,13.7 C49.639,14.243 49.644,14.783 49.642,15.327 L49.634,16.054 L49.635,16.882 L49.681,42.373 L52.949,51.794 L53.069,52.037 C53.616,52.817 54.365,53.312 55.194,53.438 C55.924,53.552 56.656,53.349 57.253,52.885 C57.684,52.55 58.038,52.078 58.269,51.523 C59.139,49.426 59.796,47.207 60.432,45.064 C60.747,44.02 61.055,42.98 61.384,41.954 L61.43,41.81 L61.444,18.05 L61.466,18.053 L61.483,16.104 C61.486,15.332 61.493,14.566 61.479,13.797 C61.476,11.567 59.993,9.924 57.953,9.879 L57.953,9.879 Z M51.63,42.044 L51.585,18.004 L52.324,18.003 L53.257,18.009 L53.258,18.009 L53.282,41.936 C52.657,42.401 52.143,42.475 51.758,42.399 L51.63,42.044 L51.63,42.044 Z M56.719,42.111 L56.719,42.111 C55.055,42.88 54.272,42.216 54.061,41.984 L54.037,18.018 L56.867,18.03 L56.867,18.03 L56.719,42.111 L56.719,42.111 Z M58.562,44.511 C58.011,46.371 57.437,48.288 56.738,50.085 L54.356,49.891 L52.033,43.212 C52.49,43.203 53.03,43.06 53.627,42.645 C54.108,43.061 55.2,43.665 57.022,42.833 C57.328,43.099 57.939,43.454 58.938,43.241 C58.813,43.665 58.688,44.088 58.562,44.511 L58.562,44.511 Z M59.48,41.498 C59.39,41.776 59.304,42.059 59.218,42.343 C58.173,42.74 57.663,42.375 57.5,42.216 L57.498,42.214 L57.646,18.039 L59.492,18.055 L59.48,41.498 L59.48,41.498 Z M59.533,13.807 C59.544,14.559 59.533,15.308 59.533,16.058 L52.397,16.05 L51.586,16.048 L51.588,15.326 C51.588,14.792 51.589,14.259 51.595,13.721 C51.612,12.612 52.266,11.788 53.205,11.789 C54.778,11.792 56.344,11.8 57.914,11.825 C58.879,11.846 59.535,12.64 59.533,13.807 L59.533,13.807 Z" id="Shape"></path>
            <path d="M0.516,15.509 L0.513,36.602 C0.511,41.048 0.51,45.496 0.529,49.942 C0.533,50.645 0.642,51.404 0.855,52.197 C1.589,54.94 4.302,57.893 8.523,57.894 L8.675,57.893 C10.871,57.855 13.081,57.863 15.286,57.874 C16.245,57.878 17.203,57.881 18.162,57.881 L19.921,57.88 L28.535,57.886 C31.751,57.886 34.966,57.879 38.181,57.848 C41.914,57.813 45.282,54.633 45.535,50.903 C45.662,49.014 45.652,47.044 45.643,45.306 L45.64,43.814 C45.65,34.432 45.655,25.05 45.64,15.671 C45.633,10.924 42.173,7.473 37.411,7.467 L36.272,7.467 L36.272,10.057 L36.448,10.053 C37.336,10.036 38.307,9.993 39.393,10.363 C41.651,11.135 43,13.11 43.002,15.646 L43.005,32.5 L43.004,40.927 C43.004,41.818 42.998,42.709 42.993,43.6 C42.98,45.63 42.966,47.686 43.022,49.707 C43.062,51.178 42.52,52.566 41.5,53.616 C40.438,54.707 38.975,55.309 37.38,55.309 C33.174,55.285 28.971,55.278 24.769,55.278 L8.733,55.29 C5.422,55.29 3.108,52.983 3.107,49.68 C3.102,38.575 3.1,27.472 3.119,16.369 C3.12,15.504 3.144,14.591 3.408,13.786 C4.105,11.659 5.627,10.403 7.806,10.154 C8.327,10.094 9.072,10.084 9.888,10.11 L9.888,7.468 L8.388,7.476 C7.8,7.48 7.243,7.543 6.731,7.662 C3.014,8.527 0.516,11.68 0.516,15.509 L0.516,15.509 Z" id="Shape"></path>
            <path d="M34.183,8.463 L34.181,7.708 C34.181,6.079 34,4.832 31.73,4.832 C31.582,4.832 31.42,4.835 31.249,4.84 L31.03,4.844 C29.979,4.844 29.188,4.567 28.614,4.001 C28.135,3.52 27.739,2.853 27.356,2.206 L27.304,2.118 C26.529,0.802 25.359,0.107 23.913,0.107 L23.811,0.108 C23.665,0.112 23.519,0.114 23.376,0.114 L22.601,0.11 C22.435,0.11 22.269,0.112 22.115,0.116 C20.753,0.14 19.668,0.768 18.978,1.935 C18.838,2.171 18.707,2.409 18.575,2.646 L18.534,2.72 C18.461,2.853 18.387,2.986 18.31,3.119 C17.806,4.001 17.092,4.524 16.134,4.719 C15.695,4.804 15.21,4.808 14.695,4.813 C14.488,4.815 14.281,4.817 14.059,4.825 C12.794,4.886 11.998,5.698 11.983,6.948 C11.975,7.738 11.975,8.877 11.983,9.656 C11.983,11.237 12.774,12.038 14.333,12.038 L31.963,12.038 C33.358,12.038 34.166,11.234 34.18,9.836 C34.186,9.459 34.185,8.943 34.183,8.463 L34.183,8.463 Z M19.868,3.417 L20.491,3.608 C20.598,3.415 20.705,3.22 20.821,3.026 C21.13,2.505 21.542,2.267 22.168,2.257 C22.312,2.252 22.457,2.251 22.601,2.251 L23.373,2.254 C23.538,2.254 23.703,2.253 23.919,2.247 C24.603,2.247 25.063,2.534 25.46,3.209 L25.514,3.299 C25.945,4.025 26.433,4.846 27.103,5.515 C28.1,6.504 29.385,6.984 31.04,6.984 L31.303,6.98 C31.579,6.971 31.827,6.97 32.026,6.975 C32.038,7.152 32.038,7.432 32.038,7.708 L32.04,8.467 C32.042,8.934 32.043,9.437 32.038,9.808 C32.038,9.84 32.037,9.869 32.036,9.893 C32.015,9.893 31.991,9.894 31.963,9.894 L14.333,9.894 C14.246,9.894 14.181,9.892 14.132,9.89 C14.129,9.833 14.126,9.753 14.126,9.642 C14.117,8.865 14.117,7.747 14.126,6.97 L14.126,6.966 C14.133,6.965 14.139,6.965 14.147,6.965 C14.335,6.958 14.525,6.957 14.733,6.955 C15.316,6.948 15.918,6.943 16.55,6.821 C18.111,6.504 19.363,5.592 20.169,4.185 L20.426,3.726 L19.868,3.417 L19.868,3.417 Z" id="Shape"></path>
        </g>
    </g>
</svg>
